<?xml version="1.0" standalone="no"?>
<!DOCTYPE svg PUBLIC "-//W3C//DTD SVG 20010904//EN"
 "http://www.w3.org/TR/2001/REC-SVG-20010904/DTD/svg10.dtd">
<svg version="1.0" xmlns="http://www.w3.org/2000/svg"
 width="2231.000000pt" height="2231.000000pt" viewBox="0 0 2231.000000 2231.000000"
 preserveAspectRatio="xMidYMid meet">
<metadata>
Created by potrace 1.11, written by Peter Selinger 2001-2013
</metadata>
<g transform="translate(0.000000,2231.000000) scale(0.100000,-0.100000)"
fill="#000000" stroke="none">
<path d="M10520 21690 l0 -620 -45 0 -45 0 0 -525 0 -524 -122 -3 -123 -3 -3
-767 -2 -768 -95 0 -95 0 0 -930 0 -930 -120 0 -120 0 0 -240 0 -240 -145 0
-145 0 0 145 0 145 -45 0 -45 0 -2 668 -3 667 -97 3 -98 3 0 594 0 595 -120 0
-120 0 0 75 0 75 -150 0 -150 0 0 -75 0 -75 -75 0 -75 0 0 -70 0 -70 -50 0
-50 0 0 -525 0 -525 -45 0 -45 0 0 -169 0 -169 -67 -12 c-38 -6 -169 -28 -293
-48 l-225 -37 -3 -1061 c-2 -1000 -3 -1062 -20 -1069 -9 -3 -73 -27 -142 -52
-69 -25 -169 -63 -223 -84 -107 -43 -168 -49 -207 -22 -14 9 -243 193 -510
408 -632 510 -571 465 -633 465 -33 0 -62 -7 -78 -18 -14 -9 -333 -332 -708
-717 -746 -765 -720 -734 -689 -820 8 -22 193 -312 411 -644 380 -578 397
-605 397 -650 0 -44 -24 -89 -318 -597 -307 -530 -320 -550 -362 -571 -44 -23
-47 -23 -513 -23 -513 0 -514 0 -556 -59 -21 -29 -511 -1871 -511 -1921 0 -37
19 -77 52 -106 12 -12 203 -114 423 -228 220 -115 410 -217 423 -229 12 -11
27 -37 33 -56 6 -24 9 -261 7 -691 -3 -648 -3 -656 -24 -684 -14 -19 -164
-113 -425 -265 -434 -254 -449 -265 -449 -342 0 -20 119 -450 265 -955 257
-891 266 -920 300 -954 l35 -35 518 -5 c578 -6 547 -1 596 -78 29 -44 585
-1002 611 -1051 36 -70 29 -85 -244 -521 -227 -365 -251 -407 -251 -446 0 -24
5 -54 11 -68 13 -27 1395 -1380 1442 -1410 19 -13 46 -20 77 -19 44 1 81 21
475 257 384 230 432 256 471 256 37 0 112 -36 561 -276 285 -152 531 -288 546
-303 16 -15 32 -45 37 -67 5 -21 10 -265 10 -542 l0 -503 38 -40 37 -39 965
-250 c750 -194 972 -249 999 -244 67 13 98 58 331 494 122 228 235 429 251
445 l29 30 643 3 643 2 34 -22 c25 -17 102 -131 289 -430 270 -432 283 -448
358 -448 43 0 1882 488 1918 508 16 10 38 33 49 52 20 34 20 38 4 544 l-17
511 22 45 c22 43 32 50 552 344 504 286 532 301 580 300 46 0 81 -17 470 -237
366 -206 426 -237 463 -237 24 0 55 6 70 14 35 18 1391 1408 1415 1449 41 74
39 78 -239 542 -174 290 -258 439 -261 464 -5 40 -9 32 121 256 158 270 342
661 517 1094 85 210 93 252 59 308 -30 50 -61 64 -147 69 -43 2 -432 6 -865 8
l-787 5 -32 -22 c-22 -15 -52 -58 -92 -132 -831 -1548 -2164 -2620 -3755
-3019 -981 -246 -2004 -227 -2979 54 -772 223 -1465 593 -2098 1120 -172 143
-496 462 -638 629 -801 939 -1282 2060 -1464 3411 -15 110 -18 201 -17 490 1
640 71 1221 220 1813 291 1159 879 2144 1703 2853 742 639 1655 1061 2681
1239 391 67 432 70 1070 70 639 0 666 -2 1060 -66 1005 -163 1939 -554 2707
-1133 1022 -770 1672 -1853 1842 -3066 25 -185 29 -225 40 -392 8 -114 13
-142 30 -167 41 -57 51 -58 541 -50 245 4 628 8 852 8 l406 1 32 26 c57 48 60
64 60 281 0 1209 -419 2367 -1187 3283 -202 241 -492 529 -710 706 l-72 59 0
75 c-1 105 46 3530 54 3948 l7 342 -881 0 -881 0 0 -595 0 -595 -285 0 -284 0
-3 118 -3 117 -192 3 -193 2 0 70 0 70 -170 0 -170 0 -2 383 -3 382 -97 3 -98
3 0 69 0 70 -50 0 -50 0 0 240 0 240 -50 0 -50 0 0 -240 0 -240 -140 0 -140 0
0 215 0 215 -55 0 -55 0 0 -215 0 -215 -75 0 -75 0 0 -95 0 -95 -70 0 -70 0 0
-837 0 -838 -108 108 -107 107 -254 0 -253 0 -94 -86 -94 -86 0 -144 0 -144
-75 0 -75 0 0 75 0 75 -250 0 -250 0 0 -120 0 -120 -45 0 -45 0 0 1075 0 1075
-120 0 -120 0 0 695 0 695 -25 0 c-24 0 -25 2 -25 70 l0 70 -95 0 -95 0 0 530
0 530 -100 0 -100 0 0 595 0 595 -50 0 -50 0 0 -570 0 -570 -70 0 -70 0 0 570
0 570 -55 0 -55 0 0 -620z"/>
<path d="M12651 12619 c-25 -5 -77 -24 -117 -43 -143 -68 -244 -212 -284 -406
-19 -90 -20 -141 -20 -925 0 -784 1 -835 20 -925 61 -298 249 -460 535 -460
268 0 448 145 528 427 22 78 22 79 22 948 0 978 2 942 -75 1103 -70 146 -185
242 -331 277 -69 16 -207 18 -278 4z m184 -463 c19 -8 41 -29 52 -48 17 -31
18 -80 18 -863 0 -775 -1 -832 -18 -862 -38 -70 -136 -83 -188 -25 -46 52 -49
99 -49 893 0 774 3 833 46 880 36 40 82 48 139 25z"/>
<path d="M7660 11245 l0 -1345 505 0 505 0 0 230 0 230 -290 0 -290 0 0 355 0
355 230 0 230 0 0 230 0 230 -230 0 -230 0 0 300 0 300 290 0 290 0 0 230 0
230 -505 0 -505 0 0 -1345z"/>
<path d="M8706 12543 c90 -298 367 -1262 366 -1273 0 -8 -89 -316 -196 -683
-108 -367 -196 -672 -196 -677 0 -6 81 -10 205 -10 l204 0 10 38 c6 20 55 195
108 389 53 194 98 351 100 349 2 -2 44 -154 94 -337 49 -184 96 -358 105 -386
l15 -53 225 0 c210 0 225 1 220 18 -3 9 -94 318 -201 687 l-196 669 187 641
c103 352 189 648 192 658 4 16 -9 17 -203 15 l-208 -3 -96 -347 c-53 -190 -98
-349 -101 -352 -3 -3 -48 154 -100 349 l-95 355 -227 0 -226 0 14 -47z"/>
<path d="M10020 11245 l0 -1345 215 0 215 0 0 530 0 530 100 0 c120 0 185 13
270 53 124 58 217 186 261 358 30 116 39 568 15 727 -33 215 -124 364 -268
438 -97 49 -138 54 -485 54 l-323 0 0 -1345z m617 862 c36 -32 43 -84 43 -332
0 -334 -5 -348 -146 -354 l-84 -3 0 357 0 357 84 -3 c63 -3 89 -8 103 -22z"/>
<path d="M11210 11245 l0 -1345 490 0 490 0 0 230 0 230 -275 0 -275 0 0 1115
0 1115 -215 0 -215 0 0 -1345z"/>
<path d="M13480 11245 l0 -1345 215 0 215 0 0 555 0 555 61 0 c35 0 75 -7 94
-16 73 -34 84 -110 85 -586 0 -295 3 -371 17 -433 l16 -75 223 0 224 0 -11 28
c-39 96 -41 123 -49 577 -8 485 -12 516 -67 633 -14 30 -45 74 -68 97 l-41 42
46 51 c102 110 134 260 127 587 -5 240 -18 321 -74 435 -33 68 -113 150 -181
184 -99 50 -149 56 -504 56 l-328 0 0 -1345z m609 860 c45 -38 53 -96 49 -325
-2 -162 -6 -201 -21 -230 -25 -52 -63 -70 -141 -70 l-66 0 0 325 0 325 74 0
c65 0 78 -3 105 -25z"/>
<path d="M14710 11245 l0 -1345 505 0 505 0 0 230 0 230 -290 0 -290 0 0 355
0 355 230 0 230 0 0 230 0 230 -230 0 -230 0 0 300 0 300 290 0 290 0 0 230 0
230 -505 0 -505 0 0 -1345z"/>
<path d="M9810 9150 c-213 -38 -355 -194 -413 -455 -22 -99 -22 -109 -22 -965
0 -855 0 -866 22 -964 56 -254 191 -409 392 -452 84 -17 158 -17 243 0 178 38
300 155 369 353 43 124 49 217 49 766 l0 517 -285 0 -285 0 0 -240 0 -240 86
0 85 0 -3 -287 c-3 -270 -4 -291 -25 -335 -25 -55 -46 -68 -106 -68 -54 0 -90
31 -109 94 -20 63 -18 1642 1 1708 19 68 53 98 108 98 60 0 81 -14 106 -68 19
-42 22 -69 25 -249 l4 -203 199 0 199 0 0 193 c0 348 -47 522 -177 658 -113
119 -285 170 -463 139z"/>
<path d="M18490 9150 c-213 -38 -355 -194 -413 -455 -22 -99 -22 -109 -22
-965 0 -855 0 -866 22 -964 56 -254 191 -409 392 -452 84 -17 158 -17 243 0
178 38 300 155 369 353 43 124 49 217 49 766 l0 517 -285 0 -285 0 0 -240 0
-240 86 0 85 0 -3 -287 c-3 -270 -4 -291 -25 -335 -25 -55 -46 -68 -106 -68
-54 0 -90 31 -109 94 -20 63 -18 1642 1 1708 19 68 53 98 108 98 60 0 81 -14
106 -68 19 -42 22 -69 25 -249 l4 -203 199 0 199 0 0 193 c0 348 -47 522 -177
658 -113 119 -285 170 -463 139z"/>
<path d="M6930 7725 l0 -1385 495 0 495 0 0 235 0 235 -285 0 -285 0 0 370 0
370 225 0 225 0 0 235 0 235 -225 0 -225 0 0 310 0 310 285 0 285 0 0 235 0
235 -495 0 -495 0 0 -1385z"/>
<path d="M8070 7725 l0 -1385 190 0 190 0 2 785 3 785 78 -388 c44 -213 115
-566 160 -784 l80 -398 214 0 213 0 0 1385 0 1385 -195 0 -195 0 -1 -597 -1
-598 -120 598 -121 597 -248 0 -249 0 0 -1385z"/>
<path d="M10630 7725 l0 -1385 210 0 210 0 0 1385 0 1385 -210 0 -210 0 0
-1385z"/>
<path d="M11250 7725 l0 -1385 190 0 190 0 2 785 3 786 88 -438 c49 -241 121
-594 160 -785 l70 -348 214 0 213 0 0 1385 0 1385 -195 0 -195 0 -1 -597 -1
-598 -120 598 -121 597 -248 0 -249 0 0 -1385z"/>
<path d="M12580 7725 l0 -1385 495 0 495 0 0 235 0 235 -285 0 -285 0 0 370 0
370 225 0 225 0 0 235 0 235 -225 0 -225 0 0 310 0 310 285 0 285 0 0 235 0
235 -495 0 -495 0 0 -1385z"/>
<path d="M13720 7725 l0 -1385 495 0 495 0 0 235 0 235 -285 0 -285 0 0 370 0
370 225 0 225 0 0 235 0 235 -225 0 -225 0 0 310 0 310 285 0 285 0 0 235 0
235 -495 0 -495 0 0 -1385z"/>
<path d="M14860 7726 l0 -1386 210 0 210 0 0 575 0 575 43 0 c109 0 158 -40
176 -143 7 -39 11 -208 11 -433 0 -357 5 -442 29 -531 l12 -43 214 0 c118 0
215 3 215 8 0 4 -10 36 -22 72 -20 61 -22 92 -29 530 -8 506 -12 545 -68 667
-16 33 -47 79 -69 101 l-40 40 33 32 c48 47 91 134 117 236 21 81 23 113 22
344 0 199 -3 270 -16 325 -49 210 -134 322 -297 387 -54 22 -70 23 -403 26
l-348 3 0 -1385z m575 904 c17 -6 34 -27 48 -57 21 -45 22 -63 22 -268 0 -200
-2 -224 -20 -259 -30 -59 -64 -79 -140 -84 l-65 -4 0 341 0 341 64 0 c36 0 76
-4 91 -10z"/>
<path d="M16120 7725 l0 -1385 210 0 210 0 0 1385 0 1385 -210 0 -210 0 0
-1385z"/>
<path d="M16750 7725 l0 -1385 190 0 190 0 2 785 3 786 88 -438 c49 -241 121
-594 160 -785 l70 -348 214 0 213 0 0 1385 0 1385 -195 0 -195 0 -1 -597 -1
-598 -120 598 -121 597 -248 0 -249 0 0 -1385z"/>
</g>
</svg>
